<?xml version="1.0" standalone="no"?>
<!DOCTYPE svg PUBLIC "-//W3C//DTD SVG 20010904//EN"
 "http://www.w3.org/TR/2001/REC-SVG-20010904/DTD/svg10.dtd">
<svg version="1.0" xmlns="http://www.w3.org/2000/svg"
 width="800.000000pt" height="800.000000pt" viewBox="0 0 800.000000 800.000000"
 preserveAspectRatio="xMidYMid meet">
<metadata>
Created by potrace 1.14, written by Peter Selinger 2001-2017
</metadata>
<g transform="translate(0.000000,800.000000) scale(0.100000,-0.100000)"
fill="#000000" stroke="none">
<path d="M3 4993 c2 -951 7 -1741 9 -1758 3 -16 9 -64 13 -105 4 -41 9 -78 11
-81 1 -3 6 -28 9 -55 3 -27 10 -62 16 -79 5 -16 11 -43 13 -60 2 -16 14 -64
25 -105 12 -41 24 -86 27 -100 3 -13 10 -30 16 -37 6 -7 8 -13 4 -13 -4 0 0
-14 9 -30 9 -17 13 -30 10 -30 -4 0 0 -12 9 -28 16 -30 56 -120 56 -126 0 -14
136 -244 172 -291 127 -165 268 -308 376 -381 20 -14 39 -29 42 -33 7 -10 184
-113 257 -150 138 -69 376 -151 513 -177 14 -3 32 -7 40 -9 27 -8 114 -22 180
-30 25 -3 56 -8 70 -10 108 -20 587 -28 735 -12 128 13 222 27 315 47 25 5 56
12 70 15 14 2 43 9 65 15 22 6 47 13 55 15 8 2 15 4 15 5 0 1 7 3 15 5 8 1 53
17 100 35 47 17 90 33 95 34 6 2 24 9 40 16 17 7 32 14 35 15 20 5 187 96 251
136 115 72 190 130 289 225 l35 33 56 -52 c31 -29 75 -68 99 -87 23 -19 49
-41 56 -47 7 -7 15 -13 19 -13 6 0 66 -41 75 -51 13 -16 190 -109 285 -151 68
-30 185 -75 215 -83 8 -2 30 -8 48 -14 18 -5 33 -10 35 -10 1 0 9 -2 17 -4 25
-8 103 -27 130 -31 14 -2 32 -7 40 -10 8 -3 33 -8 55 -10 101 -13 121 -16 140
-20 60 -14 217 -21 430 -21 256 1 343 6 500 30 17 3 48 7 70 11 144 21 375 84
510 139 62 25 218 98 225 105 3 3 25 16 50 30 25 13 50 28 55 32 6 5 35 25 66
46 201 133 401 351 530 578 40 70 106 208 124 259 9 28 21 59 26 70 13 32 70
232 75 265 1 8 9 47 17 85 8 39 18 93 21 120 4 28 9 64 12 80 3 17 8 55 11 85
3 30 8 830 10 1778 l4 1722 -623 0 -624 0 0 -1622 c0 -893 -3 -1654 -7 -1693
-3 -38 -9 -92 -12 -120 -8 -71 -44 -245 -55 -265 -5 -9 -11 -28 -13 -41 -8
-40 -97 -231 -117 -249 -3 -3 -17 -21 -29 -40 -41 -60 -156 -166 -233 -212
-90 -54 -217 -101 -333 -123 -151 -27 -459 -23 -538 7 -15 6 -30 8 -33 6 -7
-8 -104 24 -194 62 -128 55 -272 167 -337 263 -15 23 -30 44 -33 47 -5 5 -14
21 -49 84 -23 41 -72 165 -78 195 -2 14 -7 29 -10 35 -4 5 -10 26 -14 45 -4
20 -10 47 -13 61 -4 14 -8 41 -11 60 -3 19 -7 44 -9 55 -16 81 -20 402 -20
1825 l-1 1615 -618 3 c-339 1 -617 -1 -618 -5 0 -5 -2 -755 -4 -1668 -2 -913
-5 -1677 -7 -1697 -2 -21 -7 -38 -11 -38 -5 0 -5 -5 -2 -10 9 -15 -31 -205
-66 -312 -29 -90 -106 -246 -135 -275 -8 -8 -14 -18 -14 -22 0 -17 -134 -143
-202 -189 -89 -60 -241 -122 -338 -138 -14 -2 -35 -7 -48 -9 -77 -18 -335 -24
-422 -11 -25 4 -61 9 -80 11 -19 1 -55 8 -80 15 -25 7 -49 13 -55 14 -15 2
-127 46 -149 58 -64 34 -95 53 -126 76 -61 46 -132 115 -171 169 -38 50 -105
178 -127 238 -5 17 -13 39 -18 50 -4 11 -9 25 -11 30 -9 26 -52 242 -57 288
-16 152 -19 362 -19 1830 l0 1597 -619 0 -619 0 4 -1727z"/>
</g>
</svg>
