<svg width="398" height="12" viewBox="0 0 398 12" fill="none" xmlns="http://www.w3.org/2000/svg">
<path d="M1 1C9.25323 1 9.25323 11 17.5065 11C25.7597 11 25.7597 1 34.0129 1C42.2661 1 42.2661 11 50.5 11C58.7535 11 58.7535 1 66.9871 1C75.2405 1 75.2405 11 83.4742 11C91.7276 11 91.7276 1 99.9804 1C108.234 1 108.234 11 116.487 11C124.74 11 124.74 1 132.993 1C141.247 1 141.247 11 149.5 11C157.753 11 157.753 1 166.006 1C174.26 1 174.26 11 182.513 11C190.766 11 190.766 1 199.019 1C207.273 1 207.273 11 215.506 11C223.76 11 223.76 1 231.994 1C240.247 1 240.247 11 248.481 11C256.734 11 256.734 1 264.987 1C273.24 1 273.24 11 281.494 11C289.746 11 289.746 1 298 1C306.253 1 306.253 11 314.507 11C322.759 11 322.759 1 331.013 1C339.266 1 339.266 11 347.519 11C355.773 11 355.773 1 364.026 1C372.279 1 372.279 11 380.513 11C388.766 11 388.766 1 397 1" stroke="#A1A6B4" stroke-miterlimit="10" stroke-linecap="square"/>
</svg>
