<svg width="14" height="13" viewBox="0 0 14 13" fill="none" xmlns="http://www.w3.org/2000/svg">
<rect width="1920" height="934" transform="translate(-405 -223)" fill="white"/>
<path d="M12.944 6.48C12.8053 7.39733 12.5013 8.22933 12.032 8.976C11.5627 9.72267 11.0027 10.3253 10.352 10.784C9.712 11.232 9.024 11.5787 8.288 11.824C7.56267 12.0587 6.832 12.176 6.096 12.176C5.38133 12.176 4.69333 12.048 4.032 11.792C3.37067 11.536 2.77867 11.1733 2.256 10.704C1.744 10.2347 1.36533 9.62133 1.12 8.864C0.874667 8.096 0.826667 7.248 0.976 6.32C1.09333 5.584 1.31733 4.90133 1.648 4.272C1.97867 3.632 2.37333 3.09333 2.832 2.656C3.29067 2.21867 3.79733 1.84533 4.352 1.536C4.91733 1.22667 5.49333 0.997333 6.08 0.848C6.66667 0.698666 7.248 0.624 7.824 0.624C8.53867 0.624 9.22667 0.752 9.888 1.008C10.5493 1.264 11.136 1.62667 11.648 2.096C12.1707 2.56533 12.5547 3.184 12.8 3.952C13.0453 4.70933 13.0933 5.552 12.944 6.48ZM8.928 9.088C8.224 9.44 7.488 9.616 6.72 9.616C5.86667 9.616 5.15733 9.33867 4.592 8.784C4.02667 8.22933 3.824 7.45067 3.984 6.448C4.15467 5.37067 4.61333 4.56 5.36 4.016C6.11733 3.46133 6.93867 3.184 7.824 3.184C8.58133 3.184 9.216 3.37067 9.728 3.744L9.664 4.416C9.16267 4.064 8.58133 3.888 7.92 3.888C7.16267 3.888 6.48 4.10667 5.872 4.544C5.264 4.97067 4.89067 5.632 4.752 6.528C4.624 7.328 4.77333 7.92533 5.2 8.32C5.62667 8.71467 6.192 8.912 6.896 8.912C7.6 8.912 8.29867 8.73067 8.992 8.368L8.928 9.088ZM1.344 6.32C1.20533 7.17333 1.24267 7.95733 1.456 8.672C1.68 9.38667 2.02667 9.968 2.496 10.416C2.96533 10.8533 3.50933 11.1947 4.128 11.44C4.74667 11.6853 5.392 11.808 6.064 11.808C6.75733 11.808 7.45067 11.696 8.144 11.472C8.83733 11.248 9.49333 10.928 10.112 10.512C10.7307 10.0853 11.2587 9.52533 11.696 8.832C12.144 8.128 12.4373 7.344 12.576 6.48C12.7147 5.62667 12.672 4.84267 12.448 4.128C12.2347 3.41333 11.8933 2.83733 11.424 2.4C10.9653 1.952 10.4267 1.60533 9.808 1.36C9.18933 1.11467 8.544 0.992 7.872 0.992C7.168 0.992 6.46933 1.104 5.776 1.328C5.08267 1.552 4.42667 1.87733 3.808 2.304C3.18933 2.72 2.656 3.28 2.208 3.984C1.77067 4.67733 1.48267 5.456 1.344 6.32ZM19.734 1.952C20.8327 1.28 22.0113 0.943999 23.27 0.943999C24.3153 0.943999 25.142 1.2 25.75 1.712C26.3687 2.224 26.6087 2.91733 26.47 3.792C26.406 4.22933 26.2673 4.63467 26.054 5.008C25.8513 5.37067 25.5633 5.70667 25.19 6.016C24.8273 6.32533 24.4753 6.58667 24.134 6.8C23.7927 7.01333 23.35 7.26933 22.806 7.568C22.742 7.6 22.566 7.69067 22.278 7.84C22.0007 7.98933 21.8247 8.08533 21.75 8.128C21.6753 8.16 21.5153 8.24533 21.27 8.384C21.0247 8.52267 20.8593 8.624 20.774 8.688C20.6887 8.752 20.5447 8.85333 20.342 8.992C20.15 9.13067 20.0113 9.248 19.926 9.344C19.8513 9.42933 19.7447 9.54667 19.606 9.696C19.4673 9.84533 19.366 9.98933 19.302 10.128C19.238 10.256 19.1687 10.4053 19.094 10.576C19.03 10.736 18.982 10.9067 18.95 11.088H25.43L25.27 12H17.782L17.862 11.488C17.9473 10.976 18.0913 10.5067 18.294 10.08C18.5073 9.64267 18.7313 9.28533 18.966 9.008C19.2113 8.72 19.542 8.42667 19.958 8.128C20.3847 7.82933 20.742 7.60533 21.03 7.456C21.318 7.296 21.7233 7.08267 22.246 6.816C22.6513 6.60267 22.9607 6.43733 23.174 6.32C23.398 6.20267 23.67 6.03733 23.99 5.824C24.3207 5.61067 24.5713 5.41333 24.742 5.232C24.9233 5.04 25.0887 4.81067 25.238 4.544C25.398 4.27733 25.4993 3.99467 25.542 3.696C25.6273 3.10933 25.4567 2.65067 25.03 2.32C24.6033 1.98933 23.974 1.824 23.142 1.824C22.0007 1.824 20.8113 2.20267 19.574 2.96L19.734 1.952ZM27.8518 6.48C28.1184 4.79467 28.7264 3.45067 29.6758 2.448C30.6358 1.44533 31.8891 0.943999 33.4358 0.943999C34.9718 0.943999 36.0704 1.472 36.7318 2.528C37.4038 3.57333 37.6064 4.944 37.3398 6.64C37.0731 8.31467 36.4598 9.65867 35.4998 10.672C34.5504 11.6747 33.2971 12.176 31.7398 12.176C30.2038 12.176 29.1051 11.6533 28.4438 10.608C27.7824 9.552 27.5851 8.176 27.8518 6.48ZM36.3798 6.576C36.6144 5.104 36.4811 3.94667 35.9798 3.104C35.4891 2.26133 34.6198 1.84 33.3718 1.84C32.0918 1.84 31.0624 2.25067 30.2838 3.072C29.5158 3.89333 29.0144 5.05067 28.7798 6.544C28.5451 8.016 28.6731 9.17333 29.1638 10.016C29.6651 10.8587 30.5398 11.28 31.7878 11.28C33.0678 11.28 34.0918 10.8693 34.8598 10.048C35.6384 9.22667 36.1451 8.06933 36.3798 6.576ZM40.0778 1.952C41.1764 1.28 42.3551 0.943999 43.6138 0.943999C44.6591 0.943999 45.4858 1.2 46.0938 1.712C46.7124 2.224 46.9524 2.91733 46.8138 3.792C46.7498 4.22933 46.6111 4.63467 46.3978 5.008C46.1951 5.37067 45.9071 5.70667 45.5338 6.016C45.1711 6.32533 44.8191 6.58667 44.4778 6.8C44.1364 7.01333 43.6938 7.26933 43.1498 7.568C43.0858 7.6 42.9098 7.69067 42.6218 7.84C42.3444 7.98933 42.1684 8.08533 42.0938 8.128C42.0191 8.16 41.8591 8.24533 41.6138 8.384C41.3684 8.52267 41.2031 8.624 41.1178 8.688C41.0324 8.752 40.8884 8.85333 40.6858 8.992C40.4938 9.13067 40.3551 9.248 40.2698 9.344C40.1951 9.42933 40.0884 9.54667 39.9498 9.696C39.8111 9.84533 39.7098 9.98933 39.6458 10.128C39.5818 10.256 39.5124 10.4053 39.4378 10.576C39.3738 10.736 39.3258 10.9067 39.2938 11.088H45.7738L45.6138 12H38.1258L38.2058 11.488C38.2911 10.976 38.4351 10.5067 38.6378 10.08C38.8511 9.64267 39.0751 9.28533 39.3098 9.008C39.5551 8.72 39.8858 8.42667 40.3018 8.128C40.7284 7.82933 41.0858 7.60533 41.3738 7.456C41.6618 7.296 42.0671 7.08267 42.5898 6.816C42.9951 6.60267 43.3044 6.43733 43.5178 6.32C43.7418 6.20267 44.0138 6.03733 44.3338 5.824C44.6644 5.61067 44.9151 5.41333 45.0858 5.232C45.2671 5.04 45.4324 4.81067 45.5818 4.544C45.7418 4.27733 45.8431 3.99467 45.8858 3.696C45.9711 3.10933 45.8004 2.65067 45.3738 2.32C44.9471 1.98933 44.3178 1.824 43.4858 1.824C42.3444 1.824 41.1551 2.20267 39.9178 2.96L40.0778 1.952ZM51.6995 1.12H52.3875L50.8035 11.088H52.9315L52.7875 12H47.3155L47.4595 11.088H49.8595L51.2675 2.144L48.7395 3.04L48.8995 2.128L51.6995 1.12ZM60.4008 0.32H61.3128L59.4568 12H58.5448L60.4008 0.32ZM81.3046 0.799999H82.3126L77.0486 12H75.9766L74.4246 2.56L69.8646 12H68.7446L66.9686 0.799999H67.9286L69.4966 10.784L74.2806 0.848H75.0646L76.6806 10.656L81.3046 0.799999ZM82.024 7.632H87.656L87.512 8.496H81.896L82.024 7.632ZM103.836 0.799999H104.844L99.5799 12H98.5079L96.9559 2.56L92.3959 12H91.2759L89.4999 0.799999H90.4599L92.0279 10.784L96.8119 0.848H97.5959L99.2119 10.656L103.836 0.799999ZM110.797 10.416C109.869 11.5893 108.701 12.176 107.293 12.176C106.183 12.176 105.319 11.792 104.701 11.024C104.082 10.2453 103.869 9.264 104.061 8.08C104.242 6.91733 104.749 5.97333 105.581 5.248C106.423 4.512 107.383 4.144 108.461 4.144C109.186 4.144 109.805 4.31467 110.317 4.656C110.839 4.98667 111.234 5.41333 111.501 5.936L111.757 4.32H112.573L111.357 12H110.541L110.797 10.416ZM104.941 8.144C104.791 9.104 104.957 9.87733 105.437 10.464C105.917 11.0507 106.578 11.344 107.421 11.344C108.157 11.344 108.834 11.1413 109.453 10.736C110.082 10.32 110.562 9.808 110.893 9.2L111.229 7.088C111.101 6.49067 110.791 5.98933 110.301 5.584C109.81 5.17867 109.218 4.976 108.525 4.976C107.65 4.976 106.871 5.264 106.189 5.84C105.517 6.40533 105.101 7.17333 104.941 8.144ZM121.055 4.32H122.047L117.343 12H116.383L114.127 4.32H115.071L116.991 10.976L121.055 4.32ZM122.139 8.128C122.331 6.88 122.848 5.904 123.691 5.2C124.544 4.496 125.483 4.144 126.507 4.144C127.189 4.144 127.771 4.28267 128.251 4.56C128.741 4.82667 129.083 5.17867 129.275 5.616C129.477 6.04267 129.595 6.52267 129.627 7.056C129.669 7.57867 129.584 8.096 129.371 8.608H122.987C122.901 9.51467 123.152 10.1973 123.739 10.656C124.336 11.1147 125.072 11.344 125.947 11.344C126.917 11.344 127.813 11.1307 128.635 10.704L128.491 11.616C127.744 11.9893 126.848 12.176 125.803 12.176C125.28 12.176 124.784 12.096 124.315 11.936C123.845 11.7653 123.424 11.52 123.051 11.2C122.677 10.88 122.405 10.4533 122.235 9.92C122.064 9.38667 122.032 8.78933 122.139 8.128ZM128.699 7.808C128.741 7.57333 128.768 7.33333 128.779 7.088C128.8 6.832 128.763 6.58133 128.667 6.336C128.571 6.08 128.443 5.85067 128.283 5.648C128.123 5.44533 127.888 5.28533 127.579 5.168C127.269 5.04 126.912 4.976 126.507 4.976C125.707 4.976 124.981 5.232 124.331 5.744C123.691 6.24533 123.28 6.93333 123.099 7.808H128.699Z" fill="#A1A6B4"/>
</svg>
